HIERARCHY
ROOT Hips
{
	OFFSET 0.00000 0.00000 0.00000
	CHANNELS 6 Xposition Yposition Zposition Zrotation Yrotation Xrotation 
	JOINT LHipJoint
	{
		OFFSET 0 0 0
		CHANNELS 3 Zrotation Yrotation Xrotation
		JOINT LeftHip
		{
			OFFSET 1.59715 -1.91394 0.36268
			CHANNELS 3 Zrotation Yrotation Xrotation
			JOINT LeftKnee
			{
				OFFSET 2.53886 -6.97546 0.00000
				CHANNELS 3 Zrotation Yrotation Xrotation
				JOINT LeftAnkle
				{
					OFFSET 2.77084 -7.61284 0.00000
					CHANNELS 3 Zrotation Yrotation Xrotation
					JOINT LeftToe
					{
						OFFSET 0.19855 -0.54550 2.06057
						CHANNELS 3 Zrotation Yrotation Xrotation
						End Site
						{
							OFFSET 0.00000 -0.00000 1.07182
						}
					}
				}
			}
		}
	}
	JOINT RHipJoint
	{
		OFFSET 0 0 0
		CHANNELS 3 Zrotation Yrotation Xrotation
		JOINT RightHip
		{
			OFFSET -1.71086 -1.91394 0.36268
			CHANNELS 3 Zrotation Yrotation Xrotation
			JOINT RightKnee
			{
				OFFSET -2.59448 -7.12828 0.00000
				CHANNELS 3 Zrotation Yrotation Xrotation
				JOINT RightAnkle
				{
					OFFSET -2.80237 -7.69945 0.00000
					CHANNELS 3 Zrotation Yrotation Xrotation
					JOINT RightToe
					{
						OFFSET -0.18280 -0.50224 2.06614
						CHANNELS 3 Zrotation Yrotation Xrotation
						End Site
						{
							OFFSET -0.00000 -0.00000 1.07055
						}
					}
				}
			}
		}
	}
	JOINT lowerback
	{
		OFFSET 0 0 0
		CHANNELS 3 Zrotation Yrotation Xrotation
		JOINT Chest
		{
			OFFSET 0.04838 1.91536 -0.09733
			CHANNELS 3 Zrotation Yrotation Xrotation
			JOINT Chest2
			{
				OFFSET 0.04097 1.92183 -0.02751
				CHANNELS 3 Zrotation Yrotation Xrotation
				JOINT lowerneck
				{
					OFFSET 0 0 0
					CHANNELS 3 Zrotation Yrotation Xrotation
					JOINT Neck
					{
						OFFSET 0.18766 3.12816 0.13727
						CHANNELS 3 Zrotation Yrotation Xrotation
						JOINT Head
						{
							OFFSET -0.11178 3.16074 0.02732
							CHANNELS 3 Zrotation Yrotation Xrotation
							End Site
							{
								OFFSET 0.47685 1.04189 0.57898
							}
						}
					}
				}
				JOINT LeftCollar
				{
					OFFSET 0 0 0
					CHANNELS 3 Zrotation Yrotation Xrotation
					JOINT LeftShoulder
					{
						OFFSET 3.49325 0.99827 -0.10681
CHANNELS 3 Zrotation Xrotation Yrotation
						JOINT LeftElbow
						{
OFFSET 0 -5.128420 0.000000
CHANNELS 3 Zrotation Xrotation Yrotation
							JOINT LeftWrist
							{
OFFSET 0 -3.473960 0.000000
CHANNELS 3 Zrotation Xrotation Yrotation
								JOINT lhand
								{
									OFFSET 0 0 0
CHANNELS 3 Zrotation Xrotation Yrotation
									JOINT LFingers
									{
OFFSET 0 -0.728610 0.000000
CHANNELS 3 Zrotation Xrotation Yrotation
										End Site
										{
OFFSET 0 -0.587420 0.000000
										}
									}
								}
								JOINT LThumb
								{
OFFSET 0 0.000000 0.000000
CHANNELS 3 Zrotation Xrotation Yrotation
									End Site
									{
OFFSET 0 -0.596390 0.596390
									}
								}
							}
						}
					}
				}
				JOINT RightCollar
				{
					OFFSET 0 0 0
					CHANNELS 3 Zrotation Yrotation Xrotation
					JOINT RightShoulder
					{
						OFFSET -3.23261 1.50670 -0.18692
CHANNELS 3 Zrotation Xrotation Yrotation
						JOINT RightElbow
						{
OFFSET 0 -5.484770 -0.000000
CHANNELS 3 Zrotation Xrotation Yrotation
							JOINT RightWrist
							{
OFFSET 0 -3.478560 0.000000
CHANNELS 3 Zrotation Xrotation Yrotation
								JOINT rhand
								{
									OFFSET 0 0 0
CHANNELS 3 Zrotation Xrotation Yrotation
									JOINT RFingers
									{
OFFSET 0 -0.709970 0.000000
CHANNELS 3 Zrotation Xrotation Yrotation
										End Site
										{
OFFSET 0 -0.572400 0.000000
										}
									}
								}
								JOINT RThumb
								{
OFFSET 0 0.000000 0.000000
CHANNELS 3 Zrotation Xrotation Yrotation
									End Site
									{
OFFSET 0 -0.581140 0.581140
									}
								}
							}
						}
					}
				}
			}
		}
	}
}
MOTION
Frames: 5
Frame Time: 0.008333333333333333
8.857700 17.649400 -13.614500 -2.612300 -45.773900 9.872600 0.000000 0.000000 0.000000 -14.718800 -10.643500 -26.147000 8.258200 16.305900 53.487500 0.581700 7.969100 -19.456500 0.088800 -1.922000 -5.290200 0.000000 0.000000 0.000000 27.912200 14.845900 -20.098200 -5.125200 -13.523400 41.360900 -1.505600 -0.897300 -23.538700 -1.835700 -8.515200 24.290100 1.734700 -0.886600 3.942800 3.646400 -1.064300 0.344600 2.837000 -0.545400 -1.819100 -3.656600 -1.517200 -15.175400 -4.581000 -0.078300 34.131700 -1.284700 -1.335200 14.266000 -0.000000 0.000000 0.000000 -3.852200 0.924900 -8.955700 16.141000 -25.711400 3.706900 12.641300 18.943400 -31.670200 0.000000 0.000000 0.000000 -7.125000 0.000000 0.000000 -22.495100 60.860500 8.954300 -0.000000 0.000000 0.000000 -2.638800 -2.490800 11.935600 -13.283100 -21.700500 -2.557000 -24.625100 -8.499900 -14.241500 0.000000 0.000000 0.000000 7.125000 0.000000 -0.000000 1.934600 14.386300 1.394100
8.294977 17.645518 -13.582993 -3.370535 -51.428434 10.243253 0.000000 0.000000 0.000000 -11.336475 -13.570714 -33.476791 11.990566 18.386608 65.958944 0.383697 2.934047 -13.153105 0.027420 1.062060 2.919644 0.000000 0.000000 0.000000 29.397177 15.351749 -16.846228 -4.839444 -13.200659 40.124441 -1.475916 3.700894 -22.063758 -2.199032 -9.268184 26.638431 2.807046 -0.142647 5.058883 3.567769 0.001840 0.780629 2.098886 -0.026074 -2.033559 -3.263860 -0.754109 -15.042032 -5.281989 1.120929 33.397174 -1.420675 -0.851871 13.929247 0.000000 0.000000 0.000000 -4.327888 1.437562 -8.020208 16.962630 -26.808445 4.070434 14.403450 17.606332 -30.980236 0.000000 0.000000 0.000000 -7.125000 0.000000 0.000000 -20.057771 60.646167 7.832607 0.000000 0.000000 0.000000 -3.728604 -3.319099 15.187354 -13.592265 -22.148849 -2.672477 -24.908839 -10.117062 -15.287662 0.000000 0.000000 0.000000 7.125000 0.000000 0.000000 1.819558 13.214785 1.356097
7.604210 17.643967 -13.333349 -2.932047 -59.046889 10.372660 0.000000 0.000000 0.000000 -11.021461 -19.616094 -35.222851 9.168581 16.913941 56.669883 0.776108 -2.458769 -15.992677 0.094874 -1.977631 -5.444204 0.000000 0.000000 0.000000 29.381747 17.754458 -13.358548 -4.856711 -13.220575 40.199915 -1.280399 7.811789 -20.230807 -3.291141 -11.151936 32.794074 2.976753 0.655081 4.790050 3.358248 1.019458 1.351634 1.723850 0.483095 -1.303960 -2.485724 0.577982 -15.073991 -6.645462 3.247201 32.932971 -1.757476 -0.024780 13.821374 0.000000 0.000000 0.000000 -5.562577 2.026527 -7.054964 16.857541 -26.669633 4.023214 13.912990 17.293041 -31.255098 0.000000 0.000000 0.000000 -7.125000 0.000000 0.000000 -20.801922 60.784113 8.206993 0.000000 0.000000 0.000000 -4.856961 -5.763578 16.160248 -14.089968 -22.863163 -2.862972 -24.993448 -10.540345 -13.293426 0.000000 0.000000 0.000000 7.125000 0.000000 0.000000 1.618651 15.372769 1.131597
6.760071 17.663953 -13.068242 -0.757430 -64.659050 8.045644 0.000000 0.000000 0.000000 -11.920161 -25.054789 -33.417705 4.221161 12.447604 37.336399 0.750729 -9.469706 -15.846338 1.036984 -6.476354 -18.173257 0.000000 0.000000 0.000000 30.432812 19.799400 -8.144283 -4.868354 -13.234018 40.250912 -1.358513 4.740283 -20.987700 -3.009043 -10.709636 31.306846 2.534817 1.094546 5.817119 2.632160 1.582018 2.135142 1.179446 0.766487 -1.067126 -1.492401 1.662581 -15.192104 -7.276739 4.703727 32.215949 -1.931065 0.662273 13.623664 0.000000 0.000000 0.000000 -4.803410 1.881746 -9.645270 16.640804 -26.381805 3.926377 13.750505 16.888515 -30.960570 0.000000 0.000000 0.000000 -7.125000 0.000000 0.000000 -20.736687 60.472199 8.025204 0.000000 0.000000 0.000000 -4.528757 -7.526638 17.723622 -15.588144 -24.958896 -3.470424 -25.530479 -12.172498 -13.536324 0.000000 0.000000 0.000000 7.125000 0.000000 0.000000 1.267682 15.043426 0.895121
5.700208 17.578509 -12.816268 1.230020 -68.079352 5.280358 0.000000 0.000000 0.000000 -17.087398 -19.400458 -32.834968 3.412356 11.334336 33.416100 -0.165585 -16.451400 -9.796788 0.822112 -5.737362 -16.036888 0.000000 0.000000 0.000000 30.929018 17.905153 -4.525745 -5.287796 -13.700558 42.051347 -1.073447 7.319400 -18.507832 -2.731381 -10.246892 29.780056 1.886973 1.465244 6.409040 2.066361 2.023125 2.791962 0.926134 0.986548 -0.723920 -1.004122 2.372501 -14.569991 -7.818126 5.691684 31.773410 -2.066154 1.101313 13.375529 0.000000 0.000000 0.000000 -3.714666 0.449021 -9.349000 16.727750 -26.497416 3.965069 14.489295 16.900547 -31.584861 0.000000 0.000000 0.000000 -7.125000 0.000000 0.000000 -20.456322 61.229732 8.280914 0.000000 0.000000 0.000000 -3.293629 -7.078562 19.418864 -16.515607 -26.214753 -3.870951 -25.765829 -13.277459 -13.472546 0.000000 0.000000 0.000000 7.125000 0.000000 0.000000 1.101830 15.084826 0.777248
